<svg id="visual" viewBox="0 0 900 600" width="900" height="600" xmlns="http://www.w3.org/2000/svg" xmlns:xlink="http://www.w3.org/1999/xlink" version="1.1"><g transform="translate(428.1189381025033 259.79186485753473)"><path d="M142.4 -193.6C180.9 -168 206 -121.5 239.5 -66.5C273 -11.4 314.8 52.2 304.9 104.1C295 156 233.3 196.1 173.9 233.6C114.4 271.2 57.2 306.1 -0.1 306.2C-57.4 306.3 -114.8 271.7 -165.9 231.4C-216.9 191.2 -261.6 145.3 -262.6 96.2C-263.6 47 -221 -5.5 -196.9 -59.1C-172.8 -112.8 -167.2 -167.6 -137.5 -196.1C-107.8 -224.7 -53.9 -226.8 -1 -225.5C51.9 -224.1 103.8 -219.3 142.4 -193.6" fill="#BB004B"></path></g></svg>