<?xml version="1.0" encoding="utf-8"?>
<!-- Generator: Adobe Illustrator 26.3.1, SVG Export Plug-In . SVG Version: 6.00 Build 0)  -->
<svg version="1.1" id="visual" xmlns="http://www.w3.org/2000/svg" xmlns:xlink="http://www.w3.org/1999/xlink" x="0px" y="0px"
	 viewBox="0 0 900 600" style="enable-background:new 0 0 900 600;" xml:space="preserve">
<g>
	<defs>
		<path id="SVGID_1_" d="M585.9,36.3c43.4,28.9,71.7,81.3,109.5,143.4c37.8,62.1,84.9,133.9,73.8,192.4
			c-11.2,58.5-80.8,103.8-147.7,146.1c-67.1,42.4-131.6,81.8-196.2,81.9c-64.6,0.1-129.4-38.9-187-84.4
			c-57.5-45.3-107.9-97.1-109.1-152.5c-1.1-55.5,46.9-114.7,74.1-175.2c27.2-60.6,33.5-122.4,67-154.5c33.5-32.3,94.3-34.6,154-33.2
			C483.9,1.9,542.4,7.3,585.9,36.3"/>
	</defs>
	<clipPath id="SVGID_00000123402089051249596770000012252148713363717532_">
		<use xlink:href="#SVGID_1_"  style="overflow:visible;"/>
	</clipPath>
	<g style="clip-path:url(#SVGID_00000123402089051249596770000012252148713363717532_);">
		
			<image style="overflow:visible;" width="2554" height="2555" xlink:href="../imgs/about.jpg"  transform="matrix(0.2519 0 0 0.2519 128.2943 -21.8317)">
		</image>
	</g>
</g>
</svg>
